<svg xmlns="http://www.w3.org/2000/svg" viewBox="14 14 772 560" role="img" aria-label="Margem Sul">
  <title>Margem Sul — silhueta dos nove concelhos</title>
  <path d="M 16.00 248.83 C 18.48 250.81, 23.58 251.01, 30.88 260.72 C 38.17 270.43, 49.80 285.25, 59.78 307.10 C 69.76 328.94, 84.73 372.15, 90.76 391.78 C 96.80 411.42, 95.44 411.74, 96.00 424.90 C 96.56 438.07, 96.01 457.55, 94.12 470.76 C 92.23 483.96, 88.22 495.77, 84.67 504.15 C 81.12 512.52, 76.81 513.65, 72.82 521.02 C 68.83 528.39, 62.22 542.91, 60.73 548.35 C 59.23 553.78, 64.67 550.79, 63.86 553.65 C 63.04 556.52, 52.74 562.63, 55.85 565.54 C 58.96 568.45, 73.24 574.56, 82.52 571.11 C 91.79 567.66, 101.24 548.98, 111.51 544.82 C 121.78 540.66, 138.05 546.74, 144.15 546.13 C 150.26 545.52, 144.73 542.31, 148.14 541.16 C 151.56 540.00, 160.85 540.32, 164.65 539.20 C 168.45 538.09, 170.46 534.90, 170.95 534.46 C 171.44 534.03, 168.45 536.97, 167.57 536.58 C 166.70 536.19, 164.78 533.40, 165.70 532.11 C 166.61 530.82, 165.07 527.71, 173.08 528.84 C 181.09 529.98, 206.52 538.47, 213.74 538.91 C 220.96 539.35, 214.66 532.52, 216.40 531.47 C 218.14 530.42, 220.93 533.97, 224.18 532.60 C 227.43 531.23, 231.78 524.58, 235.92 523.26 C 240.06 521.94, 244.98 526.19, 249.01 524.70 C 253.03 523.21, 259.25 518.54, 260.05 514.34 C 260.85 510.13, 253.72 499.46, 253.78 499.49 C 253.85 499.51, 257.60 512.39, 260.44 514.49 C 263.27 516.59, 266.34 514.46, 270.79 512.07 C 275.24 509.67, 282.83 505.06, 287.12 500.12 C 291.42 495.18, 291.66 486.58, 296.56 482.42 C 301.46 478.27, 310.10 476.13, 316.52 475.17 C 322.94 474.21, 330.58 477.40, 335.06 476.65 C 339.55 475.90, 340.72 475.19, 343.41 470.67 C 346.11 466.15, 350.40 453.77, 351.21 449.53 C 352.02 445.30, 348.08 445.64, 348.29 445.27 C 348.50 444.89, 350.70 447.82, 352.48 447.28 C 354.25 446.75, 356.98 441.16, 358.95 442.06 C 360.92 442.96, 360.30 451.39, 364.29 452.68 C 368.28 453.98, 373.35 445.09, 382.88 449.82 C 392.40 454.55, 408.77 472.48, 421.42 481.07 C 434.07 489.67, 447.17 497.56, 458.77 501.40 C 470.38 505.24, 480.40 505.45, 491.05 504.11 C 501.69 502.77, 513.68 500.90, 522.64 493.36 C 531.60 485.81, 542.77 467.68, 544.83 458.84 C 546.88 450.00, 534.75 444.35, 534.97 440.31 C 535.19 436.28, 542.08 434.83, 546.15 434.60 C 550.23 434.38, 555.70 439.01, 559.42 438.97 C 563.14 438.92, 567.06 435.89, 568.46 434.35 C 569.86 432.80, 567.13 430.07, 567.85 429.72 C 568.56 429.37, 568.35 436.90, 572.77 432.24 C 577.18 427.58, 583.70 408.32, 594.34 401.76 C 604.99 395.19, 629.88 398.14, 636.63 392.84 C 643.37 387.54, 637.99 381.08, 634.83 369.94 C 631.67 358.80, 619.74 335.51, 617.66 326.01 C 615.58 316.50, 618.79 316.80, 622.34 312.90 C 625.90 308.99, 632.21 309.46, 639.02 302.58 C 645.83 295.70, 657.38 277.03, 663.21 271.62 C 669.05 266.20, 670.42 272.08, 674.02 270.09 C 677.63 268.11, 680.83 264.31, 684.83 259.69 C 688.83 255.08, 696.09 246.14, 698.02 242.41 C 699.95 238.69, 690.34 241.18, 696.43 237.35 C 702.51 233.52, 726.60 223.72, 734.52 219.42 C 742.44 215.12, 740.54 216.48, 743.97 211.55 C 747.39 206.61, 750.07 194.81, 755.08 189.79 C 760.09 184.77, 770.83 184.27, 774.01 181.45 C 777.18 178.64, 775.48 175.49, 774.13 172.90 C 772.78 170.30, 767.57 168.83, 765.92 165.89 C 764.27 162.95, 763.65 159.11, 764.23 155.26 C 764.82 151.40, 766.29 146.71, 769.46 142.78 C 772.62 138.85, 780.82 134.93, 783.24 131.65 C 785.67 128.37, 787.78 125.29, 784.00 123.11 C 780.22 120.93, 770.06 118.86, 760.58 118.55 C 751.10 118.24, 734.24 122.21, 727.12 121.28 C 720.00 120.34, 721.90 114.91, 717.87 112.95 C 713.85 110.99, 707.46 108.98, 702.98 109.53 C 698.49 110.08, 696.73 117.40, 690.96 116.25 C 685.19 115.11, 673.11 106.20, 668.35 102.67 C 663.60 99.14, 661.95 99.08, 662.41 95.06 C 662.87 91.04, 669.92 87.70, 671.10 78.56 C 672.29 69.42, 668.84 47.30, 669.53 40.21 C 670.22 33.12, 673.60 39.17, 675.25 36.02 C 676.89 32.86, 681.38 23.23, 679.41 21.28 C 677.44 19.33, 668.94 22.07, 663.43 24.32 C 657.93 26.58, 650.86 28.53, 646.38 34.79 C 641.91 41.05, 639.68 57.41, 636.59 61.90 C 633.51 66.39, 631.09 62.35, 627.88 61.75 C 624.67 61.16, 621.10 61.10, 617.32 58.35 C 613.54 55.60, 609.76 48.29, 605.21 45.23 C 600.65 42.18, 594.35 43.83, 590.00 40.03 C 585.65 36.22, 582.77 26.41, 579.12 22.41 C 575.46 18.40, 569.24 16.56, 568.07 16.00 C 566.89 15.44, 572.30 14.89, 572.08 19.03 C 571.86 23.18, 573.36 26.96, 566.75 40.88 C 560.14 54.80, 538.91 87.08, 532.40 102.56 C 525.90 118.03, 529.74 126.10, 527.72 133.73 C 525.69 141.36, 525.31 144.28, 520.25 148.32 C 515.19 152.36, 503.22 156.42, 497.33 157.98 C 491.45 159.55, 488.79 159.38, 484.95 157.73 C 481.11 156.09, 477.42 149.38, 474.32 148.11 C 471.22 146.84, 469.95 152.77, 466.33 150.09 C 462.71 147.42, 457.41 136.66, 452.60 132.06 C 447.79 127.46, 448.76 119.77, 437.45 122.51 C 426.14 125.26, 395.45 145.39, 384.74 148.55 C 374.02 151.70, 375.81 141.57, 373.16 141.45 C 370.51 141.32, 369.43 145.53, 368.84 147.78 C 368.25 150.02, 368.07 152.80, 369.61 154.92 C 371.15 157.05, 378.52 159.72, 378.08 160.51 C 377.64 161.29, 369.36 162.36, 367.00 159.64 C 364.64 156.92, 366.23 148.03, 363.94 144.21 C 361.65 140.38, 357.99 148.50, 353.25 136.69 C 348.50 124.87, 342.61 89.33, 335.48 73.31 C 328.35 57.29, 317.18 41.00, 310.45 40.55 C 303.73 40.11, 295.69 65.84, 295.13 70.64 C 294.57 75.44, 307.53 68.19, 307.07 69.36 C 306.61 70.53, 295.33 75.19, 292.38 77.66 C 289.43 80.14, 285.77 84.72, 289.37 84.21 C 292.97 83.69, 309.31 75.68, 313.98 74.58 C 318.65 73.49, 317.39 75.78, 317.37 77.62 C 317.36 79.47, 316.37 83.63, 313.91 85.66 C 311.45 87.68, 302.34 88.68, 302.62 89.75 C 302.91 90.82, 312.30 92.35, 315.62 92.08 C 318.94 91.81, 321.17 87.91, 322.52 88.15 C 323.87 88.39, 327.53 92.66, 323.72 93.54 C 319.91 94.42, 303.47 91.79, 299.65 93.43 C 295.83 95.08, 303.10 100.48, 300.80 103.41 C 298.49 106.35, 289.36 110.41, 285.85 111.03 C 282.33 111.65, 279.19 107.63, 279.72 107.11 C 280.26 106.60, 286.05 108.77, 289.07 107.94 C 292.09 107.10, 296.75 104.35, 297.84 102.09 C 298.94 99.84, 297.07 96.00, 295.64 94.43 C 294.21 92.86, 292.53 91.62, 289.27 92.68 C 286.02 93.75, 279.80 96.50, 276.13 100.80 C 272.46 105.10, 267.42 114.52, 267.25 118.49 C 267.09 122.47, 271.13 124.16, 275.15 124.65 C 279.17 125.15, 289.43 120.47, 291.36 121.48 C 293.29 122.49, 284.92 130.51, 286.73 130.74 C 288.53 130.98, 299.55 123.10, 302.20 122.87 C 304.86 122.65, 299.07 129.09, 302.66 129.39 C 306.25 129.68, 325.71 123.49, 323.74 124.64 C 321.78 125.79, 301.54 135.48, 290.88 136.26 C 280.21 137.05, 267.10 127.20, 259.74 129.35 C 252.37 131.51, 245.18 146.50, 246.71 149.22 C 248.25 151.94, 268.03 144.81, 268.94 145.67 C 269.85 146.53, 255.35 152.33, 252.17 154.36 C 248.98 156.39, 249.59 155.49, 249.84 157.83 C 250.09 160.18, 255.09 165.78, 253.66 168.41 C 252.23 171.05, 244.98 170.95, 241.27 173.65 C 237.56 176.35, 233.59 178.24, 231.39 184.61 C 229.18 190.98, 227.75 205.69, 228.03 211.87 C 228.30 218.06, 234.89 219.82, 233.03 221.72 C 231.17 223.62, 219.24 221.51, 216.86 223.26 C 214.49 225.02, 223.48 227.86, 218.76 232.24 C 214.05 236.61, 195.31 243.69, 188.58 249.49 C 181.86 255.29, 186.53 266.53, 178.39 267.04 C 170.26 267.54, 146.67 257.37, 139.77 252.53 C 132.87 247.69, 137.58 239.25, 137.00 238.00 C 136.42 236.76, 137.05 243.87, 136.29 245.07 C 135.52 246.28, 133.46 245.80, 132.42 245.23 C 131.38 244.66, 130.00 242.52, 130.04 241.66 C 130.09 240.79, 133.15 240.83, 132.70 240.02 C 132.25 239.21, 127.41 237.55, 127.35 236.80 C 127.29 236.05, 132.13 235.78, 132.32 235.52 C 132.52 235.25, 127.85 236.67, 128.53 235.22 C 129.20 233.77, 135.89 228.51, 136.38 226.82 C 136.87 225.12, 132.20 226.86, 131.48 225.05 C 130.77 223.24, 137.57 215.47, 132.07 215.94 C 126.57 216.40, 114.11 224.95, 98.48 227.83 C 82.85 230.71, 49.34 230.80, 38.29 233.24 C 27.24 235.67, 33.96 241.93, 32.19 242.43 C 30.41 242.93, 28.15 235.80, 27.65 236.23 C 27.15 236.66, 31.12 242.92, 29.17 245.02 C 27.23 247.12, 18.20 248.19, 16.00 248.83 C 13.80 249.46, 13.52 246.84, 16.00 248.83 Z" />
</svg>
