<svg xmlns="http://www.w3.org/2000/svg" viewBox="0 0 1200 630">
  <rect width="1200" height="630" fill="#F5F1E8"/>
  <text x="80" y="280" font-family="Georgia, serif" font-weight="600" font-size="120" fill="#1F2328" letter-spacing="-2">margem cool</text>
  <path
    d="M 80 318 C 220 360, 360 270, 500 338 S 700 290, 830 318"
    fill="none" stroke="#B85C38" stroke-width="22" stroke-linecap="round" stroke-linejoin="round"
  />
  <text x="80" y="430" font-family="Georgia, serif" font-style="italic" font-size="34" fill="#1F2328" opacity="0.7">A Margem Sul, por dentro.</text>
  <g transform="translate(753.4715025906736 177.90155440414506) scale(0.46632124352331605)">
    <path d="M 44.04 302.44 C 49.49 312.86, 57.24 326.93, 62.73 338.18 C 68.21 349.42, 72.96 360.00, 76.96 369.92 C 80.95 379.83, 84.21 389.08, 86.72 397.66 C 89.23 406.24, 91.00 414.15, 92.02 421.40 C 93.04 428.65, 93.01 434.40, 92.86 441.14 C 92.71 447.89, 92.12 454.80, 91.10 461.87 C 90.08 468.95, 88.62 476.19, 86.73 483.59 C 84.84 491.00, 82.52 498.57, 79.77 506.30 C 77.01 514.03, 72.71 523.03, 70.20 530.00 C 67.68 536.96, 65.85 543.00, 64.69 548.12 C 63.53 553.23, 63.05 557.41, 63.24 560.66 C 63.43 563.91, 64.30 566.23, 65.85 567.63 C 67.39 569.02, 68.84 569.10, 72.52 569.02 C 76.19 568.94, 81.33 568.32, 87.92 567.16 C 94.51 566.00, 102.56 564.30, 112.07 562.06 C 121.57 559.82, 132.53 557.03, 144.95 553.70 C 157.37 550.38, 173.29 546.35, 186.57 542.10 C 199.86 537.86, 212.55 533.23, 224.66 528.24 C 236.77 523.24, 248.29 517.86, 259.22 512.10 C 270.14 506.35, 280.48 500.22, 290.23 493.71 C 299.99 487.20, 308.66 478.45, 317.72 473.05 C 326.78 467.64, 335.73 463.71, 344.57 461.26 C 353.42 458.81, 362.16 457.84, 370.79 458.35 C 379.43 458.86, 387.96 460.84, 396.38 464.31 C 404.81 467.77, 413.40 474.90, 421.34 479.14 C 429.28 483.39, 436.85 486.93, 444.05 489.77 C 451.24 492.61, 458.06 494.74, 464.51 496.18 C 470.96 497.61, 477.03 498.35, 482.72 498.38 C 488.42 498.41, 493.91 497.51, 498.69 496.37 C 503.48 495.23, 507.72 493.62, 511.44 491.55 C 515.15 489.47, 518.32 486.93, 520.96 483.91 C 523.60 480.90, 525.70 477.42, 527.26 473.47 C 528.83 469.51, 528.39 464.57, 530.35 460.21 C 532.30 455.84, 535.19 451.54, 539.01 447.29 C 542.83 443.05, 547.58 438.86, 553.26 434.73 C 558.94 430.60, 565.55 426.53, 573.09 422.51 C 580.63 418.50, 591.24 414.94, 598.51 410.64 C 605.77 406.35, 611.82 401.72, 616.67 396.75 C 621.52 391.78, 625.16 386.47, 627.60 380.82 C 630.03 375.17, 631.25 369.19, 631.27 362.86 C 631.29 356.54, 627.16 350.07, 627.70 342.88 C 628.24 335.68, 630.51 327.94, 634.50 319.67 C 638.50 311.40, 644.22 302.59, 651.67 293.25 C 659.13 283.90, 668.31 274.02, 679.22 263.60 C 690.13 253.19, 705.97 240.94, 717.13 230.74 C 728.30 220.55, 737.98 211.12, 746.19 202.45 C 754.41 193.78, 761.14 185.87, 766.40 178.73 C 771.66 171.58, 775.45 165.20, 777.75 159.57 C 780.06 153.95, 780.73 149.45, 780.25 144.99 C 779.78 140.52, 777.99 136.45, 774.90 132.77 C 771.80 129.09, 767.40 125.81, 761.69 122.92 C 755.98 120.03, 748.96 117.54, 740.63 115.44 C 732.30 113.35, 720.04 112.67, 711.72 110.33 C 703.40 107.99, 696.41 105.02, 690.73 101.41 C 685.05 97.81, 680.69 93.56, 677.66 88.68 C 674.62 83.81, 672.90 78.29, 672.50 72.15 C 672.10 66.00, 674.99 57.31, 675.26 51.80 C 675.53 46.29, 675.15 42.04, 674.11 39.07 C 673.08 36.09, 671.39 34.39, 669.05 33.95 C 666.72 33.52, 663.73 34.35, 660.08 36.46 C 656.44 38.56, 651.58 44.10, 647.20 46.58 C 642.82 49.05, 638.36 50.63, 633.80 51.31 C 629.25 51.98, 624.61 51.76, 619.89 50.65 C 615.16 49.53, 610.35 47.51, 605.45 44.60 C 600.55 41.68, 595.36 35.12, 590.50 33.16 C 585.64 31.20, 580.90 31.10, 576.29 32.85 C 571.68 34.60, 567.20 38.21, 562.84 43.67 C 558.48 49.13, 554.24 56.45, 550.14 65.62 C 546.03 74.79, 542.04 88.96, 538.18 98.70 C 534.33 108.45, 530.60 116.91, 527.01 124.10 C 523.42 131.29, 519.95 137.19, 516.62 141.82 C 513.29 146.44, 510.08 149.79, 507.01 151.85 C 503.94 153.92, 501.26 153.88, 498.19 154.20 C 495.12 154.52, 491.92 154.38, 488.60 153.77 C 485.28 153.16, 481.83 152.08, 478.25 150.54 C 474.67 149.00, 470.97 147.00, 467.14 144.53 C 463.31 142.06, 459.46 137.90, 455.26 135.72 C 451.06 133.54, 446.63 132.11, 441.95 131.44 C 437.28 130.76, 432.36 130.84, 427.21 131.68 C 422.06 132.51, 416.66 134.10, 411.03 136.44 C 405.40 138.78, 399.14 144.25, 393.42 145.72 C 387.69 147.19, 382.11 147.02, 376.68 145.24 C 371.24 143.45, 365.95 140.03, 360.80 134.99 C 355.65 129.95, 350.65 123.28, 345.79 114.98 C 340.94 106.69, 336.00 93.44, 331.66 85.21 C 327.31 76.98, 323.34 70.45, 319.74 65.61 C 316.13 60.77, 312.90 57.63, 310.03 56.18 C 307.17 54.73, 304.67 54.98, 302.55 56.92 C 300.42 58.87, 298.46 64.56, 297.28 67.84 C 296.10 71.12, 295.49 74.04, 295.47 76.60 C 295.45 79.17, 296.00 81.38, 297.13 83.23 C 298.26 85.08, 299.97 86.57, 302.25 87.71 C 304.54 88.84, 308.92 89.10, 310.84 90.04 C 312.75 90.98, 313.72 92.08, 313.75 93.35 C 313.77 94.62, 312.85 96.04, 310.98 97.64 C 309.12 99.23, 306.30 100.98, 302.54 102.90 C 298.78 104.81, 291.96 107.25, 288.43 109.14 C 284.90 111.02, 282.55 112.71, 281.37 114.20 C 280.19 115.69, 280.20 116.99, 281.37 118.09 C 282.55 119.19, 284.90 120.09, 288.44 120.80 C 291.97 121.51, 299.11 121.84, 302.56 122.33 C 306.01 122.83, 308.21 123.31, 309.15 123.78 C 310.09 124.25, 309.78 124.70, 308.21 125.14 C 306.64 125.58, 303.82 126.00, 299.74 126.41 C 295.66 126.82, 288.68 126.28, 283.74 127.59 C 278.79 128.89, 274.24 131.11, 270.07 134.24 C 265.90 137.37, 262.12 141.42, 258.73 146.38 C 255.34 151.34, 252.34 157.21, 249.72 163.99 C 247.11 170.77, 245.56 179.87, 243.05 187.08 C 240.53 194.29, 237.72 201.00, 234.63 207.23 C 231.53 213.46, 228.14 219.19, 224.46 224.44 C 220.78 229.69, 216.81 234.45, 212.54 238.71 C 208.28 242.98, 203.35 246.97, 198.88 250.04 C 194.42 253.12, 190.05 255.50, 185.76 257.18 C 181.48 258.86, 177.29 259.84, 173.19 260.12 C 169.08 260.40, 165.07 259.98, 161.15 258.86 C 157.23 257.74, 153.01 255.30, 149.66 253.41 C 146.30 251.51, 143.42 249.54, 141.02 247.49 C 138.61 245.44, 136.68 243.31, 135.22 241.10 C 133.77 238.89, 132.79 236.61, 132.29 234.25 C 131.78 231.88, 133.43 228.72, 132.20 226.92 C 130.97 225.13, 128.53 223.98, 124.88 223.48 C 121.24 222.99, 116.39 223.14, 110.33 223.93 C 104.27 224.73, 97.01 226.18, 88.54 228.27 C 80.08 230.36, 67.99 234.09, 59.53 236.49 C 51.06 238.89, 43.81 240.95, 37.76 242.66 C 31.72 244.37, 26.88 245.74, 23.25 246.77 C 19.63 247.80, 17.21 248.48, 16.00 248.83 C 14.79 249.17, 15.22 247.34, 16.00 248.83 C 16.78 250.32, 18.34 253.29, 20.67 257.76 C 23.01 262.23, 26.12 268.19, 30.02 275.63 C 33.91 283.08, 38.58 292.01, 44.04 302.44 Z" fill="#B85C38" opacity="0.92"/>
  </g>
</svg>
