<svg xmlns="http://www.w3.org/2000/svg" viewBox="0 0 1200 630">
  <rect width="1200" height="630" fill="#F5F1E8"/>
  <text x="80" y="280" font-family="Georgia, serif" font-weight="600" font-size="120" fill="#1F2328" letter-spacing="-2">margem cool</text>
  <path
    d="M 80 318 C 220 360, 360 270, 500 338 S 700 290, 830 318"
    fill="none" stroke="#B85C38" stroke-width="22" stroke-linecap="round" stroke-linejoin="round"
  />
  <text x="80" y="430" font-family="Georgia, serif" font-style="italic" font-size="34" fill="#1F2328" opacity="0.7">A Margem Sul, por dentro.</text>
  <g transform="translate(722.0253164556962 177.53164556962022) scale(0.5063291139240507)">
    <path d="M 102.88 279.66 C 107.90 289.25, 115.04 302.20, 120.09 312.55 C 125.14 322.91, 129.51 332.64, 133.19 341.77 C 136.87 350.89, 139.86 359.41, 142.17 367.30 C 144.49 375.20, 146.11 382.49, 147.05 389.16 C 148.00 395.83, 147.97 401.12, 147.83 407.33 C 147.68 413.54, 147.14 419.90, 146.20 426.41 C 145.26 432.93, 143.92 439.59, 142.18 446.41 C 140.45 453.22, 138.31 460.19, 135.77 467.31 C 133.24 474.43, 129.28 482.70, 126.97 489.12 C 124.65 495.53, 122.96 501.09, 121.89 505.80 C 120.83 510.50, 120.38 514.35, 120.56 517.34 C 120.74 520.34, 121.54 522.47, 122.96 523.76 C 124.38 525.04, 125.71 525.11, 129.10 525.04 C 132.49 524.97, 137.21 524.40, 143.28 523.33 C 149.35 522.26, 156.76 520.70, 165.51 518.63 C 174.25 516.57, 184.34 514.00, 195.77 510.94 C 207.20 507.88, 221.86 504.17, 234.09 500.26 C 246.31 496.35, 258.00 492.10, 269.15 487.50 C 280.29 482.90, 290.89 477.95, 300.95 472.65 C 311.01 467.35, 320.53 461.71, 329.50 455.72 C 338.48 449.72, 346.47 441.68, 354.80 436.70 C 363.14 431.72, 371.38 428.10, 379.52 425.85 C 387.66 423.59, 395.71 422.70, 403.66 423.17 C 411.60 423.64, 419.46 425.46, 427.21 428.65 C 434.96 431.85, 442.87 438.40, 450.18 442.31 C 457.49 446.22, 464.46 449.48, 471.08 452.09 C 477.71 454.70, 483.99 456.67, 489.92 457.99 C 495.85 459.31, 501.44 459.99, 506.68 460.02 C 511.93 460.05, 516.98 459.22, 521.38 458.17 C 525.79 457.12, 529.70 455.64, 533.11 453.73 C 536.53 451.82, 539.45 449.47, 541.88 446.70 C 544.31 443.93, 546.24 440.72, 547.68 437.08 C 549.12 433.45, 548.72 428.89, 550.52 424.88 C 552.32 420.86, 554.98 416.90, 558.50 412.99 C 562.01 409.08, 566.38 405.23, 571.61 401.43 C 576.84 397.63, 582.92 393.88, 589.86 390.18 C 596.81 386.49, 606.57 383.21, 613.26 379.26 C 619.94 375.31, 625.52 371.04, 629.98 366.47 C 634.44 361.89, 637.79 357.00, 640.03 351.80 C 642.27 346.61, 643.40 341.10, 643.42 335.28 C 643.43 329.46, 639.64 323.51, 640.13 316.88 C 640.63 310.25, 642.71 303.13, 646.39 295.52 C 650.07 287.91, 655.34 279.80, 662.20 271.20 C 669.06 262.60, 677.51 253.50, 687.55 243.91 C 697.59 234.32, 712.18 223.05, 722.45 213.66 C 732.73 204.28, 741.64 195.60, 749.20 187.62 C 756.76 179.64, 762.96 172.36, 767.80 165.79 C 772.64 159.21, 776.13 153.33, 778.25 148.15 C 780.38 142.98, 780.99 138.84, 780.55 134.73 C 780.11 130.62, 778.47 126.87, 775.62 123.48 C 772.77 120.10, 768.72 117.08, 763.47 114.42 C 758.21 111.76, 751.75 109.47, 744.08 107.53 C 736.42 105.60, 725.13 104.98, 717.47 102.83 C 709.81 100.68, 703.37 97.94, 698.15 94.62 C 692.92 91.30, 688.91 87.39, 686.11 82.90 C 683.32 78.41, 681.73 73.34, 681.37 67.68 C 681.00 62.02, 683.66 54.03, 683.91 48.95 C 684.16 43.88, 683.81 39.97, 682.85 37.23 C 681.90 34.50, 680.35 32.93, 678.20 32.53 C 676.04 32.13, 673.29 32.89, 669.94 34.83 C 666.59 36.77, 662.11 41.87, 658.08 44.14 C 654.05 46.42, 649.94 47.87, 645.75 48.50 C 641.56 49.12, 637.29 48.92, 632.94 47.89 C 628.59 46.86, 624.16 45.00, 619.65 42.32 C 615.14 39.64, 610.36 33.60, 605.89 31.79 C 601.41 29.99, 597.05 29.90, 592.81 31.51 C 588.57 33.12, 584.44 36.44, 580.43 41.47 C 576.41 46.50, 572.52 53.23, 568.73 61.67 C 564.95 70.12, 561.28 83.15, 557.73 92.12 C 554.18 101.10, 550.75 108.89, 547.45 115.50 C 544.14 122.12, 540.95 127.55, 537.88 131.81 C 534.82 136.07, 531.87 139.15, 529.04 141.05 C 526.21 142.95, 523.74 142.92, 520.92 143.21 C 518.09 143.51, 515.15 143.37, 512.09 142.81 C 509.03 142.25, 505.86 141.26, 502.57 139.84 C 499.27 138.42, 495.86 136.58, 492.34 134.30 C 488.81 132.03, 485.27 128.21, 481.41 126.20 C 477.54 124.19, 473.46 122.88, 469.16 122.26 C 464.85 121.64, 460.33 121.71, 455.58 122.48 C 450.84 123.24, 445.88 124.70, 440.69 126.86 C 435.51 129.01, 429.75 134.05, 424.48 135.40 C 419.21 136.75, 414.07 136.60, 409.07 134.96 C 404.07 133.31, 399.19 130.17, 394.46 125.53 C 389.72 120.89, 385.12 114.75, 380.64 107.11 C 376.17 99.47, 371.63 87.28, 367.63 79.71 C 363.63 72.13, 359.98 66.12, 356.66 61.66 C 353.34 57.21, 350.36 54.32, 347.73 52.99 C 345.09 51.65, 342.79 51.88, 340.84 53.67 C 338.88 55.46, 337.07 60.69, 335.98 63.71 C 334.90 66.73, 334.35 69.42, 334.32 71.78 C 334.30 74.15, 334.81 76.18, 335.85 77.88 C 336.89 79.58, 338.46 80.96, 340.56 82.00 C 342.67 83.05, 346.70 83.29, 348.47 84.15 C 350.23 85.02, 351.12 86.03, 351.15 87.20 C 351.17 88.36, 350.32 89.68, 348.60 91.14 C 346.88 92.61, 344.29 94.22, 340.83 95.99 C 337.37 97.75, 331.09 99.99, 327.84 101.73 C 324.59 103.46, 322.43 105.02, 321.34 106.39 C 320.26 107.76, 320.26 108.95, 321.35 109.97 C 322.43 110.98, 324.60 111.81, 327.85 112.46 C 331.10 113.11, 337.67 113.42, 340.85 113.88 C 344.02 114.34, 346.05 114.78, 346.91 115.21 C 347.78 115.64, 347.49 116.06, 346.05 116.46 C 344.60 116.86, 342.01 117.25, 338.25 117.63 C 334.50 118.00, 328.07 117.51, 323.52 118.71 C 318.97 119.91, 314.78 121.96, 310.94 124.84 C 307.10 127.72, 303.62 131.45, 300.50 136.01 C 297.38 140.57, 294.62 145.98, 292.21 152.22 C 289.81 158.47, 288.38 166.84, 286.07 173.47 C 283.75 180.11, 281.17 186.29, 278.32 192.02 C 275.46 197.75, 272.34 203.04, 268.96 207.86 C 265.57 212.69, 261.91 217.07, 257.99 221.00 C 254.07 224.93, 249.52 228.60, 245.42 231.43 C 241.31 234.26, 237.28 236.45, 233.34 238.00 C 229.40 239.54, 225.54 240.44, 221.76 240.70 C 217.99 240.96, 214.30 240.58, 210.69 239.55 C 207.08 238.52, 203.19 236.27, 200.11 234.53 C 197.02 232.78, 194.37 230.97, 192.15 229.08 C 189.94 227.19, 188.16 225.23, 186.82 223.20 C 185.48 221.17, 184.58 219.06, 184.12 216.89 C 183.65 214.71, 185.17 211.80, 184.04 210.15 C 182.90 208.50, 180.66 207.44, 177.30 206.98 C 173.94 206.53, 169.48 206.66, 163.91 207.40 C 158.33 208.13, 151.65 209.46, 143.85 211.39 C 136.06 213.31, 124.93 216.75, 117.14 218.96 C 109.35 221.16, 102.68 223.06, 97.11 224.63 C 91.55 226.21, 87.09 227.47, 83.76 228.42 C 80.42 229.36, 78.19 229.99, 77.08 230.31 C 75.97 230.63, 76.36 228.94, 77.08 230.31 C 77.80 231.68, 79.23 234.42, 81.38 238.53 C 83.53 242.65, 86.40 248.13, 89.98 254.98 C 93.57 261.84, 97.87 270.06, 102.88 279.66 Z" fill="#B85C38" opacity="0.92"/>
  </g>
</svg>
