<svg xmlns="http://www.w3.org/2000/svg" viewBox="0 0 1200 630">
  <rect width="1200" height="630" fill="#F5F1E8"/>
  <text x="80" y="280" font-family="Georgia, serif" font-weight="600" font-size="120" fill="#1F2328" letter-spacing="-2">margem cool</text>
  <path
    d="M 80 318 C 220 360, 360 270, 500 338 S 700 290, 830 318"
    fill="none" stroke="#B85C38" stroke-width="22" stroke-linecap="round" stroke-linejoin="round"
  />
  <text x="80" y="430" font-family="Georgia, serif" font-style="italic" font-size="34" fill="#1F2328" opacity="0.7">A Margem Sul, por dentro.</text>
  <g transform="translate(753.4715025906736 177.90155440414506) scale(0.46632124352331605)">
    <path d="M 16.00 248.83 L 18.60 248.72 L 20.19 251.65 L 22.56 251.63 L 30.88 260.72 L 32.17 262.88 L 30.92 263.92 L 32.26 263.33 L 34.11 266.37 L 32.91 267.33 L 34.23 266.51 L 36.00 269.28 L 34.68 270.58 L 36.20 269.98 L 37.81 272.82 L 36.86 273.58 L 39.06 273.75 L 40.54 276.63 L 39.54 277.29 L 40.89 276.82 L 41.49 279.73 L 42.56 279.33 L 44.31 281.94 L 43.49 283.03 L 44.69 282.31 L 46.48 284.34 L 59.78 307.10 L 68.13 324.72 L 75.72 349.76 L 87.88 378.93 L 90.76 391.78 L 96.00 424.90 L 94.12 470.76 L 89.75 489.20 L 84.67 504.15 L 80.45 509.22 L 79.76 514.80 L 76.84 516.51 L 77.02 519.15 L 72.82 521.02 L 71.15 527.63 L 67.99 531.68 L 68.87 535.93 L 60.73 548.35 L 60.76 550.27 L 63.86 553.65 L 60.27 555.39 L 61.24 559.60 L 57.86 561.62 L 59.01 561.67 L 58.09 562.71 L 58.91 564.30 L 55.85 565.54 L 58.54 567.12 L 66.35 567.27 L 75.57 570.92 L 82.52 571.11 L 89.37 566.16 L 89.06 562.86 L 90.25 562.85 L 91.55 559.29 L 97.45 556.81 L 103.21 549.83 L 106.36 549.66 L 111.51 544.82 L 119.84 543.67 L 131.02 545.52 L 132.78 543.88 L 144.15 546.13 L 146.96 544.21 L 148.14 541.16 L 152.69 542.24 L 155.45 540.46 L 159.34 541.12 L 164.65 539.20 L 170.95 534.46 L 167.57 536.58 L 164.31 534.39 L 165.70 532.11 L 167.80 532.60 L 169.38 529.71 L 173.08 528.84 L 184.23 531.02 L 195.65 536.85 L 213.74 538.91 L 213.99 535.74 L 216.40 531.47 L 223.57 531.03 L 224.18 532.60 L 233.22 527.34 L 235.92 523.26 L 240.03 522.08 L 246.15 522.70 L 249.01 524.70 L 252.41 520.26 L 258.45 516.52 L 260.05 514.34 L 253.78 499.49 L 260.44 514.49 L 266.50 511.84 L 270.79 512.07 L 280.70 505.97 L 287.12 500.12 L 287.05 497.61 L 290.30 495.68 L 294.89 489.43 L 293.30 486.13 L 296.56 482.42 L 307.89 480.78 L 309.17 476.62 L 316.52 475.17 L 335.06 476.65 L 335.58 474.50 L 343.41 470.67 L 343.62 466.87 L 346.71 462.22 L 349.49 451.29 L 351.21 449.53 L 350.42 446.71 L 348.29 445.27 L 352.48 447.28 L 354.46 444.38 L 358.95 442.06 L 364.29 452.68 L 367.43 450.01 L 372.87 449.06 L 382.88 449.82 L 402.43 462.90 L 414.13 475.44 L 421.42 481.07 L 458.77 501.40 L 468.14 504.20 L 477.24 504.31 L 491.05 504.11 L 510.20 500.81 L 522.64 493.36 L 544.83 458.84 L 544.49 454.71 L 534.97 440.31 L 542.02 435.31 L 546.15 434.60 L 559.42 438.97 L 564.16 433.84 L 568.46 434.35 L 567.85 429.72 L 572.77 432.24 L 571.46 430.15 L 572.14 428.86 L 577.59 425.40 L 578.96 422.26 L 586.83 415.57 L 587.74 412.73 L 592.38 408.37 L 594.34 401.76 L 618.74 394.41 L 630.56 394.67 L 636.63 392.84 L 634.83 369.94 L 627.57 357.40 L 624.45 337.26 L 622.61 335.78 L 622.20 331.44 L 617.66 326.01 L 617.42 323.85 L 619.33 318.52 L 622.89 314.74 L 622.34 312.90 L 628.00 311.92 L 639.02 302.58 L 643.54 292.75 L 654.19 285.80 L 663.21 271.62 L 674.02 270.09 L 684.83 259.69 L 691.72 248.79 L 698.02 242.41 L 696.43 237.35 L 708.08 229.31 L 716.74 229.67 L 722.96 223.85 L 734.52 219.42 L 735.08 215.49 L 743.97 211.55 L 755.08 189.79 L 774.01 181.45 L 772.50 178.10 L 774.13 172.90 L 768.37 165.70 L 765.92 165.89 L 763.72 159.93 L 764.23 155.26 L 769.46 142.78 L 783.24 131.65 L 784.00 123.11 L 760.58 118.55 L 750.59 122.51 L 727.12 121.28 L 717.87 112.95 L 708.79 112.12 L 702.98 109.53 L 697.49 109.63 L 690.96 116.25 L 679.01 109.99 L 678.56 106.85 L 676.70 104.66 L 668.35 102.67 L 665.71 97.26 L 663.58 97.18 L 662.41 95.06 L 664.24 90.01 L 666.83 88.91 L 670.21 84.25 L 671.10 78.56 L 671.59 72.23 L 668.86 63.28 L 671.15 54.24 L 671.71 44.87 L 669.53 40.21 L 675.25 36.02 L 679.82 25.67 L 679.41 21.28 L 663.43 24.32 L 660.67 28.94 L 657.43 31.05 L 646.38 34.79 L 645.03 45.76 L 637.76 55.49 L 636.59 61.90 L 627.88 61.75 L 621.06 57.94 L 617.32 58.35 L 616.34 55.80 L 605.21 45.23 L 599.42 44.84 L 594.26 41.10 L 590.00 40.03 L 579.12 22.41 L 568.07 16.00 L 572.08 19.03 L 569.93 31.54 L 566.75 40.88 L 542.35 82.26 L 532.40 102.56 L 527.72 133.73 L 524.64 143.80 L 520.25 148.32 L 509.86 152.96 L 497.33 157.98 L 484.95 157.73 L 474.32 148.11 L 466.33 150.09 L 462.56 143.06 L 455.81 137.18 L 452.60 132.06 L 443.34 123.44 L 437.45 122.51 L 425.99 126.70 L 420.81 132.37 L 410.93 136.89 L 408.50 140.14 L 401.15 141.39 L 384.74 148.55 L 381.53 146.67 L 380.27 143.65 L 374.93 143.56 L 373.16 141.45 L 368.84 147.78 L 369.61 154.92 L 371.68 156.99 L 377.69 157.54 L 378.08 160.51 L 367.00 159.64 L 365.50 156.45 L 363.94 144.21 L 353.25 136.69 L 352.99 127.50 L 345.17 112.19 L 341.39 91.19 L 335.48 73.31 L 323.72 54.23 L 310.45 40.55 L 295.13 70.64 L 297.07 71.96 L 307.29 66.43 L 307.07 69.36 L 292.38 77.66 L 290.18 80.13 L 289.37 84.21 L 292.66 84.70 L 297.28 80.98 L 308.22 78.58 L 310.25 73.86 L 313.98 74.58 L 317.38 75.97 L 317.37 77.62 L 313.72 81.48 L 313.91 85.66 L 306.68 86.95 L 302.62 89.75 L 315.62 92.08 L 316.61 91.66 L 315.85 88.85 L 322.52 88.15 L 323.72 89.12 L 323.72 93.54 L 316.40 94.73 L 299.65 93.43 L 298.75 94.14 L 300.80 103.41 L 293.47 108.87 L 285.85 111.03 L 279.04 108.93 L 279.72 107.11 L 289.07 107.94 L 297.84 102.09 L 295.64 94.43 L 289.27 92.68 L 276.13 100.80 L 273.70 107.57 L 270.93 110.18 L 267.25 118.49 L 275.15 124.65 L 291.36 121.48 L 292.96 123.63 L 286.11 126.59 L 285.55 130.52 L 286.73 130.74 L 287.94 128.44 L 302.20 122.87 L 300.27 125.48 L 302.66 129.39 L 323.46 121.63 L 323.74 124.64 L 299.77 135.00 L 290.88 136.26 L 279.17 135.28 L 272.05 132.57 L 267.31 127.97 L 265.74 129.50 L 259.74 129.35 L 246.71 149.22 L 248.84 151.33 L 257.03 150.73 L 261.15 145.92 L 267.38 144.55 L 268.94 145.67 L 259.31 153.88 L 252.17 154.36 L 249.84 157.83 L 253.81 162.53 L 250.81 162.63 L 253.66 168.41 L 241.27 173.65 L 234.15 179.41 L 231.39 184.61 L 228.03 211.87 L 233.03 221.72 L 219.74 221.66 L 216.86 223.26 L 216.87 228.69 L 218.33 231.14 L 218.68 229.53 L 218.76 232.24 L 202.72 238.51 L 205.86 241.05 L 204.98 240.97 L 205.14 242.98 L 202.33 242.43 L 203.16 244.54 L 188.58 249.49 L 185.54 254.52 L 184.27 253.27 L 183.25 258.60 L 178.39 267.04 L 176.27 263.36 L 163.53 262.86 L 149.42 257.50 L 149.78 255.12 L 148.07 256.68 L 139.77 252.53 L 139.43 248.21 L 137.22 245.17 L 137.00 238.00 L 136.29 245.07 L 135.39 243.83 L 134.72 245.07 L 134.67 243.46 L 134.65 245.10 L 133.74 243.96 L 132.42 245.23 L 132.77 243.88 L 131.07 243.64 L 132.26 242.03 L 130.73 242.89 L 130.04 241.66 L 132.70 240.02 L 129.99 241.54 L 129.17 240.07 L 131.43 238.78 L 129.10 239.95 L 128.50 238.86 L 130.25 237.72 L 128.43 238.74 L 128.83 237.28 L 127.35 236.80 L 132.32 235.52 L 128.53 235.22 L 133.07 229.67 L 133.76 230.97 L 136.38 226.82 L 131.48 225.05 L 133.80 220.51 L 132.17 219.56 L 132.73 218.13 L 131.24 217.99 L 132.91 217.92 L 132.07 215.94 L 126.56 216.77 L 114.03 223.33 L 98.48 227.83 L 96.76 226.90 L 80.74 229.29 L 75.79 228.08 L 71.27 229.14 L 71.06 230.52 L 67.96 230.05 L 58.39 233.05 L 55.45 231.84 L 44.39 235.01 L 38.29 233.24 L 34.16 241.66 L 32.19 242.43 L 28.82 235.91 L 27.65 236.23 L 31.20 242.46 L 29.17 245.02 L 23.35 245.86 L 24.52 244.43 L 21.30 245.70 L 19.77 248.36 L 16.00 248.83 Z" fill="#B85C38" opacity="0.92"/>
  </g>
</svg>
