<svg xmlns="http://www.w3.org/2000/svg" viewBox="-2.00 -4.00 868.60 128.00" role="img" aria-label="margem cool">
  <style>
    .mc-ink { fill: #1F2328; }
    .mc-rust-fill { fill: #B85C38; }
    .mc-rust-stroke { stroke: #B85C38; }
    @media (prefers-color-scheme: dark) {
      .mc-ink { fill: #F5F1E8; }
      .mc-rust-fill { fill: #D17347; }
      .mc-rust-stroke { stroke: #D17347; }
    }
  </style>
  <g class="mc-ink"><g transform="translate(0.00 0)"><path d="M18.90 85L5.80 85L5.80 36.70L18.90 36.70L18.90 40.90Q20.60 39.20 22.90 37.90Q27.10 35.70 32.40 35.70Q37.40 35.70 41.50 37.90Q44.90 39.80 47.20 43Q49.60 39.90 53.10 38Q57.50 35.70 62.90 35.70Q68.30 35.70 72.60 37.95Q76.90 40.20 79.40 44.40Q81.90 48.60 81.90 54.40L81.90 85L68.80 85L68.80 56.50Q68.80 52.30 66.15 49.95Q63.50 47.60 59.60 47.60Q57.10 47.60 54.95 48.65Q52.80 49.70 51.60 51.70Q50.40 53.70 50.40 56.50L50.40 85L37.30 85L37.30 56.50Q37.30 52.30 34.65 49.95Q32 47.60 28.10 47.60Q25.50 47.60 23.40 48.65Q21.30 49.70 20.10 51.70Q18.90 53.70 18.90 56.50"/></g><g transform="translate(86.70 0)"><path d="M26 86Q19.40 86 14.10 82.70Q8.80 79.40 5.80 73.70Q2.80 68 2.80 60.90Q2.80 53.70 5.80 48Q8.80 42.30 14.10 39Q19.40 35.70 26 35.70Q31.20 35.70 35.30 37.80Q38 39.20 40 41.30L40 36.70L53 36.70L53 85L40 85L40 80.30Q38 82.40 35.30 83.80Q31.20 86 26 86M28.40 73.90Q33.90 73.90 37.30 70.25Q40.70 66.60 40.70 60.80Q40.70 57 39.15 54.05Q37.60 51.10 34.85 49.45Q32.10 47.80 28.40 47.80Q24.80 47.80 22.05 49.45Q19.30 51.10 17.75 54.05Q16.20 57 16.20 60.80Q16.20 64.70 17.75 67.65Q19.30 70.60 22.05 72.25Q24.80 73.90 28.40 73.90"/></g><g transform="translate(145.50 0)"><path d="M18.90 85L5.80 85L5.80 36.70L18.90 36.70L18.90 41Q18.90 40.90 19 40.80Q23.30 35.70 31.40 35.70Q34.90 35.70 37.70 36.85Q40.50 38 42.80 40.60L34.60 50Q33.50 48.80 31.95 48.20Q30.40 47.60 28.40 47.60Q24.20 47.60 21.55 50.25Q18.90 52.90 18.90 58.30"/></g><g transform="translate(188.90 0)"><path d="M26 106.40Q18.30 106.40 12.40 103.65Q6.50 100.90 3 95.90L11.30 87.60Q14.10 90.90 17.55 92.65Q21 94.40 25.90 94.40Q32 94.40 35.55 91.30Q39.10 88.20 39.10 82.70L39.10 78.70Q37.30 80.50 34.90 81.60Q30.70 83.70 25.40 83.70Q18.90 83.70 13.70 80.55Q8.50 77.40 5.55 71.90Q2.60 66.40 2.60 59.60Q2.60 52.80 5.55 47.40Q8.50 42 13.70 38.85Q18.90 35.70 25.40 35.70Q30.80 35.70 35 37.80Q37.40 39 39.20 40.80L39.20 36.70L52.20 36.70L52.20 82.50Q52.20 89.70 48.85 95.05Q45.50 100.40 39.60 103.40Q33.70 106.40 26 106.40M28 71.80Q31.60 71.80 34.25 70.25Q36.90 68.70 38.40 65.95Q39.90 63.20 39.90 59.70Q39.90 56.10 38.40 53.40Q36.90 50.70 34.25 49.15Q31.60 47.60 28 47.60Q24.40 47.60 21.70 49.15Q19 50.70 17.50 53.45Q16 56.20 16 59.70Q16 63.10 17.50 65.85Q19 68.60 21.70 70.20Q24.40 71.80 28 71.80"/></g><g transform="translate(246.80 0)"><path d="M28.90 86Q21.30 86 15.40 82.75Q9.50 79.50 6.05 73.80Q2.60 68.10 2.60 60.80Q2.60 53.60 5.95 47.95Q9.30 42.30 15.10 38.95Q20.90 35.60 28 35.60Q35 35.60 40.35 38.75Q45.70 41.90 48.75 47.35Q51.80 52.80 51.80 59.70Q51.80 61 51.65 62.35Q51.50 63.70 51.10 65.40L15.80 65.50Q16.20 67 16.90 68.20Q18.50 71.50 21.60 73.25Q24.70 75 28.80 75Q32.50 75 35.50 73.75Q38.50 72.50 40.70 70L48.40 77.70Q44.90 81.80 39.85 83.90Q34.80 86 28.90 86M15.80 55.70L39.20 55.60Q38.80 53.90 38.20 52.50Q36.80 49.60 34.25 48.05Q31.70 46.50 28 46.50Q24.10 46.50 21.20 48.25Q18.30 50 16.80 53.10Q16.20 54.30 15.80 55.70"/></g><g transform="translate(300.90 0)"><path d="M18.90 85L5.80 85L5.80 36.70L18.90 36.70L18.90 40.90Q20.60 39.20 22.90 37.90Q27.10 35.70 32.40 35.70Q37.40 35.70 41.50 37.90Q44.90 39.80 47.20 43Q49.60 39.90 53.10 38Q57.50 35.70 62.90 35.70Q68.30 35.70 72.60 37.95Q76.90 40.20 79.40 44.40Q81.90 48.60 81.90 54.40L81.90 85L68.80 85L68.80 56.50Q68.80 52.30 66.15 49.95Q63.50 47.60 59.60 47.60Q57.10 47.60 54.95 48.65Q52.80 49.70 51.60 51.70Q50.40 53.70 50.40 56.50L50.40 85L37.30 85L37.30 56.50Q37.30 52.30 34.65 49.95Q32 47.60 28.10 47.60Q25.50 47.60 23.40 48.65Q21.30 49.70 20.10 51.70Q18.90 53.70 18.90 56.50"/></g><g transform="translate(407.10 0)"><path d="M28.60 86Q21.20 86 15.30 82.70Q9.40 79.40 6 73.70Q2.60 68 2.60 60.90Q2.60 53.70 6 48Q9.40 42.30 15.35 38.95Q21.30 35.60 28.60 35.60Q34.30 35.60 39.10 37.70Q43.90 39.80 47.40 43.70L39 52.20Q37.10 50.10 34.45 49Q31.80 47.90 28.60 47.90Q25 47.90 22.15 49.55Q19.30 51.20 17.65 54.05Q16 56.90 16 60.80Q16 64.60 17.65 67.55Q19.30 70.50 22.15 72.15Q25 73.80 28.60 73.80Q31.90 73.80 34.55 72.65Q37.20 71.50 39.10 69.30L47.60 77.80Q43.90 81.80 39.10 83.90Q34.30 86 28.60 86"/></g><g transform="translate(456.30 0)"><path d="M28.50 86Q21.20 86 15.35 82.65Q9.50 79.30 6.05 73.55Q2.60 67.80 2.60 60.70Q2.60 53.60 6 47.95Q9.40 42.30 15.30 38.95Q21.20 35.60 28.40 35.60Q35.80 35.60 41.65 38.95Q47.50 42.30 50.90 47.95Q54.30 53.60 54.30 60.70Q54.30 67.80 50.90 73.55Q47.50 79.30 41.65 82.65Q35.80 86 28.50 86M28.40 73.80Q32.10 73.80 34.95 72.15Q37.80 70.50 39.35 67.55Q40.90 64.60 40.90 60.80Q40.90 57 39.30 54.10Q37.70 51.20 34.90 49.55Q32.10 47.90 28.40 47.90Q24.80 47.90 22 49.55Q19.20 51.20 17.60 54.10Q16 57 16 60.80Q16 64.60 17.60 67.55Q19.20 70.50 22 72.15Q24.80 73.80 28.40 73.80"/></g><g transform="translate(513.20 0)"><path d="M28.50 86Q21.20 86 15.35 82.65Q9.50 79.30 6.05 73.55Q2.60 67.80 2.60 60.70Q2.60 53.60 6 47.95Q9.40 42.30 15.30 38.95Q21.20 35.60 28.40 35.60Q35.80 35.60 41.65 38.95Q47.50 42.30 50.90 47.95Q54.30 53.60 54.30 60.70Q54.30 67.80 50.90 73.55Q47.50 79.30 41.65 82.65Q35.80 86 28.50 86M28.40 73.80Q32.10 73.80 34.95 72.15Q37.80 70.50 39.35 67.55Q40.90 64.60 40.90 60.80Q40.90 57 39.30 54.10Q37.70 51.20 34.90 49.55Q32.10 47.90 28.40 47.90Q24.80 47.90 22 49.55Q19.20 51.20 17.60 54.10Q16 57 16 60.80Q16 64.60 17.60 67.55Q19.20 70.50 22 72.15Q24.80 73.80 28.40 73.80"/></g></g>
  <path class="mc-rust-fill" d="M 576.10 7.00 L 576.10 83.00 Q 582.60 86.90 589.10 83.00 L 589.10 7.00 Q 582.60 3.10 576.10 7.00 Z"/>
  <path class="mc-rust-stroke" d="M 582.60 83.00 C 622.60 103.00, 677.60 65.00, 732.60 98.00 S 792.60 77.00, 862.60 83.00" fill="none" stroke-width="13.00" stroke-linecap="round" stroke-linejoin="round"/>
</svg>
